<mxfile host="app.diagrams.net" modified="2023-08-14T14:34:51.241Z" agent="Mozilla/5.0 (Windows NT 10.0; Win64; x64) AppleWebKit/537.36 (KHTML, like Gecko) Chrome/114.0.0.0 Safari/537.36" etag="CJRoHvvr_WGDRP8PwH0h" version="21.6.5" type="device">
  <diagram name="第 1 页" id="LaOWiUcQdSU3yIhGlvTi">
    <mxGraphModel dx="1050" dy="541" grid="1" gridSize="10" guides="1" tooltips="1" connect="1" arrows="1" fold="1" page="1" pageScale="1" pageWidth="2000" pageHeight="2000" math="0" shadow="0">
      <root>
        <mxCell id="0" />
        <mxCell id="1" parent="0" />
        <mxCell id="02b5nnepgXRyqaMgDM8i-1" value="" style="rounded=0;whiteSpace=wrap;html=1;comic=1;fillColor=#fff2cc;strokeColor=#d6b656;" vertex="1" parent="1">
          <mxGeometry x="170" y="380" width="700" height="470" as="geometry" />
        </mxCell>
        <mxCell id="02b5nnepgXRyqaMgDM8i-2" value="" style="rounded=0;whiteSpace=wrap;html=1;comic=1;fillColor=#dae8fc;strokeColor=#6c8ebf;glass=0;shadow=0;" vertex="1" parent="1">
          <mxGeometry x="200" y="430" width="440" height="220" as="geometry" />
        </mxCell>
        <mxCell id="02b5nnepgXRyqaMgDM8i-3" value="" style="rounded=0;whiteSpace=wrap;html=1;comic=1;fillColor=#dae8fc;strokeColor=#6c8ebf;" vertex="1" parent="1">
          <mxGeometry x="200" y="660" width="440" height="170" as="geometry" />
        </mxCell>
        <mxCell id="02b5nnepgXRyqaMgDM8i-4" value="" style="rounded=0;whiteSpace=wrap;html=1;comic=1;fillColor=#dae8fc;strokeColor=#6c8ebf;" vertex="1" parent="1">
          <mxGeometry x="670" y="430" width="180" height="400" as="geometry" />
        </mxCell>
        <mxCell id="02b5nnepgXRyqaMgDM8i-5" value="&lt;font face=&quot;Comic Sans MS&quot; style=&quot;font-size: 16px;&quot;&gt;Detail&lt;/font&gt;" style="text;html=1;strokeColor=none;fillColor=none;align=center;verticalAlign=middle;whiteSpace=wrap;rounded=0;" vertex="1" parent="1">
          <mxGeometry x="480" y="390" width="60" height="30" as="geometry" />
        </mxCell>
        <mxCell id="02b5nnepgXRyqaMgDM8i-7" value="&lt;font face=&quot;Comic Sans MS&quot; style=&quot;font-size: 16px;&quot;&gt;BlogDetail&lt;br&gt;&lt;/font&gt;" style="text;html=1;strokeColor=none;fillColor=none;align=center;verticalAlign=middle;whiteSpace=wrap;rounded=0;" vertex="1" parent="1">
          <mxGeometry x="390" y="525" width="60" height="30" as="geometry" />
        </mxCell>
        <mxCell id="02b5nnepgXRyqaMgDM8i-8" value="&lt;font face=&quot;Comic Sans MS&quot; style=&quot;font-size: 16px;&quot;&gt;BlogComment&lt;br&gt;&lt;/font&gt;" style="text;html=1;strokeColor=none;fillColor=none;align=center;verticalAlign=middle;whiteSpace=wrap;rounded=0;" vertex="1" parent="1">
          <mxGeometry x="390" y="730" width="60" height="30" as="geometry" />
        </mxCell>
        <mxCell id="02b5nnepgXRyqaMgDM8i-9" value="&lt;font face=&quot;Comic Sans MS&quot; style=&quot;font-size: 16px;&quot;&gt;BlogTOC&lt;br&gt;&lt;br&gt;&lt;/font&gt;" style="text;html=1;strokeColor=none;fillColor=none;align=center;verticalAlign=middle;whiteSpace=wrap;rounded=0;" vertex="1" parent="1">
          <mxGeometry x="730" y="615" width="60" height="30" as="geometry" />
        </mxCell>
        <mxCell id="02b5nnepgXRyqaMgDM8i-10" value="监听滚动" style="text;html=1;strokeColor=none;fillColor=none;align=center;verticalAlign=middle;whiteSpace=wrap;rounded=0;" vertex="1" parent="1">
          <mxGeometry x="730" y="630" width="60" height="30" as="geometry" />
        </mxCell>
        <mxCell id="02b5nnepgXRyqaMgDM8i-11" value="监听滚动" style="text;html=1;strokeColor=none;fillColor=none;align=center;verticalAlign=middle;whiteSpace=wrap;rounded=0;" vertex="1" parent="1">
          <mxGeometry x="390" y="760" width="60" height="30" as="geometry" />
        </mxCell>
        <mxCell id="02b5nnepgXRyqaMgDM8i-12" value="滚动条" style="text;html=1;strokeColor=none;fillColor=none;align=center;verticalAlign=middle;whiteSpace=wrap;rounded=0;" vertex="1" parent="1">
          <mxGeometry x="560" y="390" width="60" height="30" as="geometry" />
        </mxCell>
      </root>
    </mxGraphModel>
  </diagram>
</mxfile>
